# xmcd
#
# Track frame offsets: 
#        150
#        22820
#        49670
#        73700
#
# Disc length: 1404 seconds
#
# Revision: 0
# Processed by: cddbd v1.5.2PL0 Copyright (c) Steve Scherf et al.
# Submitted via: ExactAudioCopy v0.99pb5
#
DISCID=2a057a04
DTITLE=Chante Moore - Old School Lovin' 
DYEAR=1994
DGENRE=Soul
TTITLE0=Old School Lovin' [LP Version]
TTITLE1=Old School Lovin' [Extended Vocal Version]
TTITLE2=Old School Lovin' [Short Hot Summer Breeze Version]
TTITLE3=Old School Lovin' [Long Hot Summer Breeze Version]
EXTD=
EXTT0=
EXTT1=
EXTT2=
EXTT3=
PLAYORDER=
